<?xml version="1.0" standalone="no"?>
<!DOCTYPE svg PUBLIC "-//W3C//DTD SVG 20010904//EN"
 "http://www.w3.org/TR/2001/REC-SVG-20010904/DTD/svg10.dtd">
<svg version="1.0" xmlns="http://www.w3.org/2000/svg"
 width="1040.000000pt" height="1040.000000pt" viewBox="0 0 1040.000000 1040.000000"
 preserveAspectRatio="xMidYMid meet">
<metadata>
Created by potrace 1.11, written by Peter Selinger 2001-2013
</metadata>
<g transform="translate(0.000000,1040.000000) scale(0.100000,-0.100000)"
fill="#000000" stroke="none">
<path d="M4300 7629 c-25 -4 -61 -9 -80 -13 -19 -3 -51 -8 -71 -11 -19 -3 -71
-15 -115 -26 -43 -10 -88 -21 -100 -24 -12 -3 -41 -12 -65 -21 -24 -8 -55 -18
-68 -20 -13 -3 -32 -9 -41 -14 -10 -5 -40 -17 -66 -26 -50 -16 -335 -152 -344
-164 -3 -3 -30 -21 -62 -38 -54 -31 -253 -168 -283 -194 -8 -7 -20 -17 -27
-23 -97 -75 -363 -331 -453 -435 -52 -61 -89 -106 -115 -140 -14 -18 -30 -38
-36 -44 -6 -6 -38 -49 -72 -96 -34 -47 -66 -90 -70 -95 -30 -37 -162 -243
-232 -360 -85 -143 -281 -521 -339 -655 -18 -41 -42 -95 -53 -120 -11 -24 -42
-101 -70 -170 -27 -69 -53 -134 -58 -145 -34 -78 -158 -443 -152 -449 3 -3 -1
-6 -8 -6 -7 0 -11 -3 -7 -6 3 -4 0 -23 -8 -43 -7 -20 -25 -76 -40 -126 -14
-49 -30 -101 -35 -115 -6 -14 -16 -52 -24 -85 -8 -33 -36 -141 -61 -240 -41
-161 -53 -209 -70 -295 -3 -14 -8 -31 -10 -38 -2 -7 -7 -34 -11 -59 -3 -26
-10 -58 -15 -70 -5 -14 -4 -25 2 -29 14 -9 848 -9 856 0 4 4 8 12 9 19 1 7 5
30 9 52 4 22 9 43 11 46 2 3 6 21 9 40 3 19 12 63 20 99 8 36 17 76 19 90 2
14 18 82 35 152 17 69 32 137 35 150 9 45 85 324 120 443 20 66 38 127 40 135
7 29 38 125 46 145 5 11 14 38 20 60 7 22 18 54 26 70 7 17 19 50 28 75 53
163 211 510 301 665 19 33 40 71 47 85 18 35 176 269 207 306 14 17 42 51 61
75 130 163 323 340 570 523 80 59 153 114 163 122 9 8 19 14 21 14 3 0 33 19
68 43 62 42 216 137 222 137 2 0 35 17 73 39 226 124 444 180 613 158 47 -6
150 -46 150 -58 0 -5 5 -9 12 -9 22 0 109 -105 141 -170 27 -55 32 -76 32
-136 -1 -61 -6 -82 -35 -140 -69 -137 -284 -319 -560 -473 -55 -31 -340 -174
-350 -176 -3 0 -21 -8 -40 -17 -19 -9 -80 -35 -135 -58 -55 -22 -110 -45 -122
-50 -21 -8 -31 -41 -48 -146 -3 -16 -8 -40 -11 -54 -3 -14 -8 -36 -10 -50 -3
-14 -7 -38 -11 -55 -4 -16 -8 -37 -9 -45 -6 -31 -36 -187 -44 -223 -4 -20 -5
-39 -1 -41 3 -2 58 26 121 62 149 84 540 282 557 282 7 0 13 5 13 10 0 6 8 10
18 10 10 0 22 4 27 9 6 4 44 22 85 39 41 17 93 39 115 48 22 10 42 18 45 19 3
0 41 13 85 28 44 15 91 29 105 31 14 3 25 5 25 6 0 4 46 10 92 12 56 2 102
-20 105 -50 0 -9 2 -24 3 -32 1 -8 -3 -21 -8 -27 -5 -7 -7 -13 -3 -13 8 0 -53
-113 -68 -125 -7 -5 -15 -15 -17 -22 -16 -45 -294 -324 -509 -511 -137 -119
-457 -382 -465 -382 -3 0 -15 -9 -28 -20 -38 -36 -49 -44 -162 -130 -162 -124
-208 -159 -231 -178 -12 -9 -32 -25 -45 -34 -13 -9 -58 -42 -99 -73 -41 -30
-86 -63 -99 -73 -13 -9 -88 -64 -167 -122 -78 -58 -152 -112 -164 -120 -197
-140 -327 -234 -337 -243 -10 -9 98 -12 475 -10 268 1 593 2 723 3 l236 0 89
106 c49 58 98 116 109 128 90 102 138 162 222 273 53 70 102 133 107 139 6 6
20 23 31 38 11 16 25 33 30 40 6 6 44 51 85 101 41 49 85 101 97 115 12 14 30
35 40 46 180 210 476 498 703 685 118 97 342 259 359 259 5 0 11 6 14 13 3 6
27 23 53 37 27 13 63 34 79 46 44 30 342 177 385 188 3 1 30 10 60 21 30 10
60 20 65 21 82 21 125 31 125 27 0 -2 -19 -32 -42 -66 -118 -171 -204 -364
-257 -572 -42 -166 -56 -302 -53 -515 2 -188 14 -304 47 -452 3 -13 7 -32 9
-44 24 -120 83 -311 131 -425 69 -164 203 -299 380 -384 136 -65 204 -80 375
-80 177 0 214 6 360 55 96 32 272 117 314 151 6 5 45 34 86 65 70 53 231 209
293 285 108 134 241 367 372 654 15 33 40 86 56 118 16 31 25 57 21 57 -4 0
-2 4 3 8 6 4 30 48 55 97 100 201 229 425 292 506 15 20 28 40 28 43 0 19 134
153 161 161 24 8 24 15 -2 95 -11 36 -22 72 -24 80 -4 17 -108 357 -161 528
-33 105 -37 112 -57 106 -99 -30 -281 -197 -428 -394 -166 -222 -347 -510
-504 -800 -65 -121 -155 -270 -175 -290 -3 -3 -18 -25 -35 -50 -16 -25 -50
-72 -75 -106 -25 -34 -54 -74 -65 -90 -21 -29 -92 -120 -147 -187 -160 -196
-310 -299 -412 -283 -55 9 -87 28 -149 91 -74 75 -91 113 -94 207 -2 78 29
223 62 295 8 17 15 33 15 36 0 2 11 30 25 61 14 31 25 58 25 61 0 3 9 20 20
39 41 73 64 121 62 129 -1 4 2 7 7 7 5 0 13 9 16 20 10 30 186 327 305 514
149 234 182 294 177 323 -16 79 -67 181 -169 333 -147 218 -236 303 -394 377
-277 127 -670 101 -1069 -72 -138 -60 -268 -124 -354 -174 -28 -17 -56 -31
-61 -31 -6 0 -10 -4 -10 -10 0 -5 -5 -10 -11 -10 -12 0 -174 -105 -206 -133
-28 -25 -29 -16 -5 37 10 23 27 59 37 81 16 36 70 186 80 225 56 201 70 385
41 535 -16 79 -84 233 -108 243 -4 2 -8 9 -8 15 -1 25 -122 139 -215 203 -81
55 -321 150 -405 160 -8 1 -33 6 -55 12 -22 6 -67 14 -99 18 -33 3 -69 8 -80
11 -37 8 -289 10 -336 2z"/>
</g>
</svg>
